<?xml version="1.0" encoding="utf-8"?>
<!-- Generator: Adobe Illustrator 25.4.1, SVG Export Plug-In . SVG Version: 6.00 Build 0)  -->
<svg version="1.1" id="Layer_1" xmlns="http://www.w3.org/2000/svg" xmlns:xlink="http://www.w3.org/1999/xlink" x="0px" y="0px"
	 viewBox="0 0 512 512" style="enable-background:new 0 0 512 512;" xml:space="preserve">
<style type="text/css">
	.st0{fill:none;stroke:#20980E;stroke-width:32;stroke-miterlimit:10;}
	.st1{fill:#20960E;}
	.st2{display:none;fill:none;stroke:#20590E;stroke-width:32;stroke-linecap:round;stroke-linejoin:round;}
</style>
<path class="st0" d="M448,256c0-106-86-192-192-192S64,150,64,256s86,192,192,192S448,362,448,256z"/>
<path class="st1" d="M256,64C150,64,64,150,64,256s86,192,192,192s192-86,192-192S362,64,256,64z M364.2,186.3l-134.4,160
	c-3,3.6-7.3,5.6-12,5.7h-0.3c-4.5,0-8.9-1.9-11.9-5.3l-57.6-64c-5.9-6.6-5.4-16.7,1.2-22.6c6.6-5.9,16.7-5.4,22.6,1.2l45.3,50.3
	l122.6-145.9c5.7-6.8,15.8-7.6,22.5-2C369.1,169.4,369.9,179.5,364.2,186.3z"/>
<path class="st2" d="M352,176L217.6,336L160,272"/>
</svg>
