<?xml version="1.0" encoding="utf-8"?>
<!-- Generator: Adobe Illustrator 25.4.1, SVG Export Plug-In . SVG Version: 6.00 Build 0)  -->
<svg version="1.1" id="Layer_1" xmlns="http://www.w3.org/2000/svg" xmlns:xlink="http://www.w3.org/1999/xlink" x="0px" y="0px"
	 viewBox="0 0 512 512" style="enable-background:new 0 0 512 512;" xml:space="preserve">
<style type="text/css">
	.st0{fill:none;stroke:#A70000;stroke-width:32;stroke-miterlimit:10;}
	.st1{fill:#A70000;}
	.st2{display:none;fill:none;stroke:#A70000;stroke-width:32;stroke-linecap:round;stroke-miterlimit:10;}
</style>
<circle class="st0" cx="256" cy="256" r="208"/>
<path class="st1" d="M256,48C141.1,48,48,141.1,48,256s93.1,208,208,208s208-93.1,208-208S370.9,48,256,48z M374.3,374.3
	c-3.1,3.1-7.2,4.7-11.3,4.7s-8.2-1.6-11.3-4.7l-214-214c-6.2-6.2-6.2-16.4,0-22.6c6.2-6.2,16.4-6.2,22.6,0l214,214
	C380.6,357.9,380.6,368.1,374.3,374.3z"/>
<path class="st2" d="M149,149l214,214"/>
</svg>
