<?xml version="1.0" encoding="utf-8"?>
<!-- Generator: Adobe Illustrator 25.4.1, SVG Export Plug-In . SVG Version: 6.00 Build 0)  -->
<svg version="1.1" id="Layer_1" xmlns="http://www.w3.org/2000/svg" xmlns:xlink="http://www.w3.org/1999/xlink" x="0px" y="0px"
	 viewBox="0 0 512 512" style="enable-background:new 0 0 512 512;" xml:space="preserve">
<style type="text/css">
	.st0{fill:#FFE000;}
	.st1{display:none;fill:none;stroke:#000000;stroke-width:32;stroke-miterlimit:10;}
	.st2{display:none;}
</style>
<path class="st0" d="M256,48.2C141.3,48.2,48.2,141.3,48.2,256S141.3,463.8,256,463.8S463.8,370.7,463.8,256S370.7,48.2,256,48.2z
	 M256,367.4c-11.2,0-20.3-9.1-20.3-20.3c0-11.2,9.1-20.3,20.3-20.3s20.3,9.1,20.3,20.3C276.3,358.3,267.2,367.4,256,367.4z
	 M277.2,163.4c0,0.3,0,0.6-0.1,0.9v0.7l-6,123.7v0.6c-0.1,6.6-5.1,13.2-15.1,13.3c-9.9,0-15-6.5-15.2-13.2v-0.7l-6-123.8v-0.7
	c-0.1-1.4,0-2.7,0.2-4.1c1-8.7,8.1-16.8,21.2-16.7C270.7,143.6,277.7,153.7,277.2,163.4z"/>
<path class="st1" d="M448,256c0-106-86-192-192-192S64,150,64,256s86,192,192,192S448,362,448,256z"/>
<circle class="st2" cx="256" cy="347.1" r="20.3"/>
<path class="st2" d="M271.1,288.7c0,0.2,0,0.4,0,0.6c-0.1,6.6-5.1,13.2-15.1,13.3c-9.9,0-15-6.5-15.2-13.2c0-0.2,0-0.4,0-0.7
	l-6-123.8c0-0.2,0-0.4,0-0.7c-0.1-1.4,0-2.7,0.2-4.1c1-8.7,8.1-16.8,21.2-16.7c14.5,0.2,21.5,10.3,21,20c0,0.3,0,0.6-0.1,0.9
	c0,0.2,0,0.4,0,0.7L271.1,288.7z"/>
</svg>
