<?xml version="1.0" encoding="utf-8"?>
<!-- Generator: Adobe Illustrator 25.4.1, SVG Export Plug-In . SVG Version: 6.00 Build 0)  -->
<svg version="1.1" xmlns="http://www.w3.org/2000/svg" xmlns:xlink="http://www.w3.org/1999/xlink" x="0px" y="0px"
	 viewBox="0 0 512 512" style="enable-background:new 0 0 512 512;" xml:space="preserve">
<style type="text/css">
	.st0{fill:none;stroke:#000000;stroke-width:32;stroke-linejoin:round;}
	.st1{display:none;}
	.st2{fill:none;stroke:#000000;stroke-width:32;stroke-linecap:round;stroke-linejoin:round;stroke-miterlimit:10;}
</style>
<g id="Layer_1">
	<path class="st0" d="M198.2,192.5h233.7c19.4,0,35,14.3,35,31.9v191.2c0,17.6-15.7,31.9-35,31.9H198.2c-19.4,0-35-14.3-35-31.9
		V224.4C163.1,206.8,178.8,192.5,198.2,192.5z"/>
	<path class="st1" d="M397.8,64H114.2C77.7,64,48,94.2,48,131.2V176h16c0-16,16-32,32-32h320c16,0,32,16,32,32h16v-44.8
		C464,94.1,434.3,64,397.8,64z"/>
	<rect x="254.1" y="194.5" class="st2" width="121.8" height="31"/>
</g>
<g id="Layer_2">
	<path class="st0" d="M346.2,192.5v-88.8c0-17.6-15.7-31.9-35-31.9H77.5c-19.4,0-35.1,14.3-35.1,31.9v191.2
		c0,17.6,15.7,31.9,35.1,31.9h389.4"/>
	<rect x="133.4" y="73.8" class="st2" width="121.8" height="31"/>
</g>
</svg>
