<?xml version="1.0" encoding="utf-8"?>
<!-- Generator: Adobe Illustrator 25.4.1, SVG Export Plug-In . SVG Version: 6.00 Build 0)  -->
<svg version="1.1" xmlns="http://www.w3.org/2000/svg" xmlns:xlink="http://www.w3.org/1999/xlink" x="0px" y="0px"
	 viewBox="0 0 512 512" style="enable-background:new 0 0 512 512;" xml:space="preserve">
<style type="text/css">
	.st0{fill:none;stroke:#000000;stroke-width:32;stroke-linecap:round;stroke-linejoin:round;stroke-miterlimit:10;}
	.st1{display:none;}
	.st2{display:inline;}
	.st3{fill:none;stroke:#010101;stroke-width:32;stroke-miterlimit:10;}
</style>
<g id="Layer_1">
	<path class="st0" d="M421.2,421.8H90.8c-19.6,0-35.5-15.9-35.5-35.5V148h366c19.6,0,35.5,15.9,35.5,35.5v202.8
		C456.7,405.9,440.8,421.8,421.2,421.8z"/>
	<path class="st0" d="M205.5,136.4v-16.6c0-16.1-13-29.1-29.1-29.1h-92c-16.1,0-29.1,13-29.1,29.1v16.6v30.9"/>
	<line class="st0" x1="114" y1="231.6" x2="398" y2="231.6"/>
	<line class="st0" x1="114" y1="322.2" x2="398" y2="322.2"/>
	<circle class="st0" cx="185.3" cy="322.2" r="16.3"/>
	<circle class="st0" cx="331.9" cy="231.5" r="16.3"/>
</g>
<g id="Layer_2" class="st1">
	<g id="Layer_1_00000073722848509611503430000000832709529565115547_" class="st2">
		<path class="st3" d="M314.9,145c5.8,5.8,9.1,13.7,9.1,21.9v168.5c0,22.1-17.9,40-40,40H97.9c-22.1,0-40-17.9-40-40V71.5
			c0-22.1,17.9-40,40-40h93c8.2,0,16,3.2,21.8,9L314.9,145z"/>
		<path class="st3" d="M190.9,31.5v104.4c0,15.6,12.6,28.2,28.2,28.2H324"/>
	</g>
</g>
</svg>
