<?xml version="1.0" standalone="no"?>
<!DOCTYPE svg PUBLIC "-//W3C//DTD SVG 20010904//EN"
 "http://www.w3.org/TR/2001/REC-SVG-20010904/DTD/svg10.dtd">
<svg version="1.0" xmlns="http://www.w3.org/2000/svg"
 width="134.000000pt" height="129.000000pt" viewBox="0 0 134.000000 129.000000"
 preserveAspectRatio="xMidYMid meet">

<g transform="translate(0.000000,129.000000) scale(0.100000,-0.100000)"
fill="#000000" stroke="none">
<path d="M638 1282 c-23 -9 -621 -581 -632 -604 -6 -13 -4 -24 9 -38 25 -28
39 -25 85 16 l40 36 0 -296 0 -297 25 -24 c24 -25 27 -25 189 -25 155 0 166 1
176 20 7 13 10 91 10 210 -1 104 1 194 5 200 10 16 240 13 254 -3 7 -9 12 -88
13 -218 l3 -204 168 -3 c167 -2 168 -2 192 22 l25 25 0 297 0 296 40 -36 c22
-20 46 -36 54 -36 19 0 46 27 46 45 0 8 -52 65 -115 126 l-115 112 -2 166 -3
166 -97 3 c-90 3 -98 1 -108 -19 -7 -12 -10 -39 -8 -60 2 -21 1 -39 -3 -39 -3
0 -45 36 -92 80 -84 79 -121 98 -159 82z m126 -169 c50 -49 151 -146 224 -216
l132 -128 -2 -317 -3 -317 -110 0 -110 0 -5 185 c-3 127 -9 192 -18 208 -23
39 -70 52 -194 52 -141 0 -183 -11 -208 -53 -18 -29 -20 -51 -20 -215 l0 -183
-112 3 -113 3 -3 316 -2 316 117 114 c292 284 328 319 332 319 3 0 46 -39 95
-87z m264 -40 c2 -46 0 -83 -4 -83 -4 0 -16 7 -26 17 -14 13 -18 31 -18 85 0
66 1 69 23 66 20 -3 22 -9 25 -85z"/>
</g>
</svg>
