<?xml version="1.0" encoding="utf-8"?>
<!-- Generator: Adobe Illustrator 25.4.1, SVG Export Plug-In . SVG Version: 6.00 Build 0)  -->
<svg version="1.1" id="Layer_1" xmlns="http://www.w3.org/2000/svg" xmlns:xlink="http://www.w3.org/1999/xlink" x="0px" y="0px"
	 viewBox="0 0 512 512" style="enable-background:new 0 0 512 512;" xml:space="preserve">
<style type="text/css">
	.st0{fill:none;stroke:#000000;stroke-width:32;stroke-linejoin:round;}
	.st1{fill:none;stroke:#000000;stroke-width:32;stroke-linecap:round;stroke-linejoin:round;}
	.st2{fill:none;stroke:#000000;stroke-width:32;stroke-miterlimit:10;}
	.st3{display:none;fill:none;stroke:#000000;stroke-width:32;stroke-linejoin:round;}
</style>
<g id="Layer_1_00000112631184456604024420000000136326079402152609_">
	<path class="st0" d="M445.9,257.4H66.1c-8,0-14.6-5.8-14.6-12.8V65c0-7.1,6.6-12.8,14.6-12.8h379.9c8,0,14.6,5.8,14.6,12.8v179.6
		C460.5,251.6,454,257.4,445.9,257.4z"/>
	<path class="st0" d="M445.9,461H66.1c-8,0-14.6-4-14.6-8.9V327.8c0-4.9,6.6-8.9,14.6-8.9h379.9c8,0,14.6,4,14.6,8.9v124.3
		C460.5,457,454,461,445.9,461z"/>
	<path class="st1" d="M190.4,390H51.5 M460.5,390H321.6"/>
	<circle class="st1" cx="256" cy="154.8" r="58.3"/>
</g>
<g id="Layer_2_00000109012472419961033930000002492375152193721765_">
	<path class="st2" d="M460.5,65v50.5c-37.9,0-68.6-26.9-68.6-60.2c0-1,0-2.1,0.1-3h53.9C454,52.2,460.5,57.9,460.5,65z"/>
	<path class="st2" d="M460.5,193.3v51.3c0,7.1-6.6,12.8-14.6,12.8h-53.9c-0.1-1.3-0.2-2.6-0.2-3.9
		C392,220.2,422.6,193.3,460.5,193.3z"/>
	<path class="st2" d="M120,55.2c0,33.3-30.7,60.2-68.6,60.2V65c0-7.1,6.6-12.8,14.6-12.8h53.9C120,53.2,120,54.2,120,55.2z"/>
	<path class="st2" d="M120,253.5c0,1.3,0,2.6-0.2,3.9H66.1c-8,0-14.6-5.8-14.6-12.8v-51.3C89.4,193.3,120,220.2,120,253.5z"/>
	<path class="st3" d="M460.5,95v179.6c0,7.1-6.6,12.8-14.6,12.8H66.1c-8,0-14.6-5.8-14.6-12.8V95c0-7.1,6.6-12.8,14.6-12.8h379.9
		C454,82.2,460.5,88,460.5,95z"/>
</g>
<rect x="190.3" y="319" class="st1" width="131.3" height="142"/>
</svg>
