<?xml version="1.0" encoding="utf-8"?>
<!-- Generator: Adobe Illustrator 25.4.1, SVG Export Plug-In . SVG Version: 6.00 Build 0)  -->
<svg version="1.1" xmlns="http://www.w3.org/2000/svg" xmlns:xlink="http://www.w3.org/1999/xlink" x="0px" y="0px"
	 viewBox="0 0 512 512" style="enable-background:new 0 0 512 512;" xml:space="preserve">
<style type="text/css">
	.st0{display:none;fill:none;stroke:#000000;stroke-width:32;stroke-linejoin:round;}
	.st1{display:none;fill:none;stroke:#000000;stroke-width:32;stroke-miterlimit:10;}
</style>
<g id="Layer_1">
	<path class="st0" d="M96,64h320c26.5,0,48,21.5,48,48v288c0,26.5-21.5,48-48,48H96c-26.5,0-48-21.5-48-48V112
		C48,85.5,69.5,64,96,64z"/>
	<path d="M397.8,64H114.2C77.7,64,48,94.2,48,131.2V176h16c0-16,16-32,32-32h320c16,0,32,16,32,32h16v-44.8
		C464,94.1,434.3,64,397.8,64z"/>
</g>
<g id="Layer_2">
	<path class="st1" d="M235.2,355c0-10.4,1.3-20.4,3.8-30c13.1,0.7,26-5.8,33-17.9c7-12.1,6.1-26.6-1-37.5c14.3-14,32.1-24.5,51.9-30
		c5.9,11.7,18.1,19.6,32,19.6s26.1-8,32-19.6c19.9,5.5,37.7,16,51.9,30c-7.1,11-8,25.4-1,37.5c7,12.1,20,18.6,33,17.9
		c2.5,9.6,3.8,19.6,3.8,30s-1.3,20.4-3.8,30c-13.1-0.7-26,5.8-33,17.9c-7,12.1-6.1,26.6,1,37.5c-14.3,14-32.1,24.5-51.9,30
		c-5.9-11.7-18.1-19.6-32-19.6s-26.1,8-32,19.6c-19.9-5.5-37.7-16-51.9-30c7.1-11,8-25.4,1-37.5c-7-12.1-20-18.6-33-17.9
		C236.5,375.4,235.2,365.4,235.2,355z M355,390.9c-19.9,0-35.9-16.1-35.9-35.9c0-19.9,16.1-35.9,35.9-35.9s35.9,16.1,35.9,35.9
		C390.9,374.9,374.9,390.9,355,390.9z"/>
	<path d="M416,48H96c-35.3,0-64,28.7-64,64v288c0,35.3,28.7,64,64,64h162.1c-1.8-1.6-3.6-3.3-5.3-5l-15.1-14.9l7.9-12.2H96
		c-17.7,0-32-14.4-32-32V112c0-17.7,14.3-32,32-32h320c17.6,0,32,14.3,32,32v130.7c3.2,2.6,6.3,5.4,9.2,8.3l15.1,14.9l-11.5,17.8
		c-2,3.2-2.2,7.2-0.3,10.4c1.8,3.1,5,5,8.6,5c0.2,0,0.4,0,0.5,0l10.3-0.5V112C480,76.7,451.3,48,416,48z"/>
	<path d="M355,303c-28.6,0-52,23.3-52,52s23.3,52,52,52s52-23.3,52-52S383.6,303,355,303z M355,375c-11,0-20-9-20-20s9-20,20-20
		s20,9,20,20S366,375,355,375z M355,303c-28.6,0-52,23.3-52,52s23.3,52,52,52s52-23.3,52-52S383.6,303,355,303z M355,375
		c-11,0-20-9-20-20s9-20,20-20s20,9,20,20S366,375,355,375z M355,303c-28.6,0-52,23.3-52,52s23.3,52,52,52s52-23.3,52-52
		S383.6,303,355,303z M355,375c-11,0-20-9-20-20s9-20,20-20s20,9,20,20S366,375,355,375z M355,303c-28.6,0-52,23.3-52,52
		s23.3,52,52,52s52-23.3,52-52S383.6,303,355,303z M355,375c-11,0-20-9-20-20s9-20,20-20s20,9,20,20S366,375,355,375z M355,303
		c-28.6,0-52,23.3-52,52s23.3,52,52,52s52-23.3,52-52S383.6,303,355,303z M355,375c-11,0-20-9-20-20s9-20,20-20s20,9,20,20
		S366,375,355,375z M355,303c-28.6,0-52,23.3-52,52s23.3,52,52,52s52-23.3,52-52S383.6,303,355,303z M355,375c-11,0-20-9-20-20
		s9-20,20-20s20,9,20,20S366,375,355,375z M355,303c-28.6,0-52,23.3-52,52s23.3,52,52,52s52-23.3,52-52S383.6,303,355,303z M355,375
		c-11,0-20-9-20-20s9-20,20-20s20,9,20,20S366,375,355,375z M355,303c-28.6,0-52,23.3-52,52s23.3,52,52,52s52-23.3,52-52
		S383.6,303,355,303z M355,375c-11,0-20-9-20-20s9-20,20-20s20,9,20,20S366,375,355,375z M355,303c-28.6,0-52,23.3-52,52
		s23.3,52,52,52s52-23.3,52-52S383.6,303,355,303z M355,375c-11,0-20-9-20-20s9-20,20-20s20,9,20,20S366,375,355,375z M355,303
		c-28.6,0-52,23.3-52,52s23.3,52,52,52s52-23.3,52-52S383.6,303,355,303z M355,375c-11,0-20-9-20-20s9-20,20-20s20,9,20,20
		S366,375,355,375z M355,303c-28.6,0-52,23.3-52,52s23.3,52,52,52s52-23.3,52-52S383.6,303,355,303z M355,375c-11,0-20-9-20-20
		s9-20,20-20s20,9,20,20S366,375,355,375z M355,303c-28.6,0-52,23.3-52,52s23.3,52,52,52s52-23.3,52-52S383.6,303,355,303z M355,375
		c-11,0-20-9-20-20s9-20,20-20s20,9,20,20S366,375,355,375z M355,303c-28.6,0-52,23.3-52,52s23.3,52,52,52s52-23.3,52-52
		S383.6,303,355,303z M355,375c-11,0-20-9-20-20s9-20,20-20s20,9,20,20S366,375,355,375z M355,303c-28.6,0-52,23.3-52,52
		s23.3,52,52,52s52-23.3,52-52S383.6,303,355,303z M355,375c-11,0-20-9-20-20s9-20,20-20s20,9,20,20S366,375,355,375z M355,303
		c-28.6,0-52,23.3-52,52s23.3,52,52,52s52-23.3,52-52S383.6,303,355,303z M355,375c-11,0-20-9-20-20s9-20,20-20s20,9,20,20
		S366,375,355,375z M355,303c-28.6,0-52,23.3-52,52s23.3,52,52,52s52-23.3,52-52S383.6,303,355,303z M355,375c-11,0-20-9-20-20
		s9-20,20-20s20,9,20,20S366,375,355,375z M486.5,321l-3.3-12.7l-3.3,0.2l-9.8,0.5c-7.5,0.4-14.6-3.4-18.3-10
		c-3.8-6.5-3.6-14.5,0.5-20.9l7.1-11l-9.3-9.2c-0.7-0.7-1.5-1.4-2.2-2.1c-16-15.1-35.6-26.1-56.7-31.9l-12.6-3.5l-5.9,11.6
		c-3.4,6.7-10.2,10.9-17.8,10.9s-14.4-4.2-17.8-10.9l-5.9-11.6l-12.6,3.5c-22.1,6.1-42.5,17.9-58.9,34l-9.3,9.2l7.1,11
		c4.1,6.3,4.3,14.3,0.5,20.9c-3.8,6.5-10.8,10.3-18.3,10l-13.1-0.7l-3.3,12.7c-2.9,11-4.3,22.5-4.3,34s1.4,23,4.3,34l3.3,12.7
		l13.1-0.7c7.5-0.4,14.6,3.4,18.3,10c3.8,6.5,3.6,14.5-0.5,20.9l-0.1,0.2l-7,10.7l9.3,9.2c4.5,4.4,9.2,8.4,14.2,12.1
		c13.4,10,28.6,17.5,44.7,21.9l12.6,3.5l5.9-11.6c3.4-6.7,10.2-10.9,17.8-10.9s14.4,4.2,17.8,10.9l5.9,11.6l12.6-3.5
		c19.5-5.4,37.6-15.2,52.9-28.5c2-1.8,4-3.6,6-5.5l9.3-9.2l-7.1-11c-4.1-6.3-4.3-14.3-0.5-20.9c3.8-6.5,10.8-10.3,18.3-10l9.8,0.5
		l3.3,0.2l3.3-12.7c2.9-11,4.3-22.5,4.3-34S489.4,332.1,486.5,321z M457.7,370.2c-3.4,0.8-6.6,1.8-9.7,3.2
		c-9.8,4.4-18.2,11.8-23.8,21.5c-6.6,11.4-8.5,24.6-5.8,37c0.3,1.5,0.7,3,1.2,4.4c-8,6.3-16.9,11.5-26.3,15.2
		c-9.7-10.5-23.4-16.7-38.2-16.7s-28.5,6.2-38.2,16.7c-9.4-3.8-18.3-8.9-26.3-15.2c0.5-1.4,0.8-2.9,1.2-4.3
		c2.7-12.4,0.8-25.6-5.8-37.1c-7.4-12.8-19.6-21.6-33.6-24.7c-0.7-5-1.1-10.1-1.1-15.2s0.4-10.2,1.1-15.2
		c14-3.1,26.2-11.9,33.6-24.7c7.4-12.8,8.9-27.8,4.6-41.4c8-6.3,16.9-11.5,26.3-15.2c9.7,10.5,23.4,16.7,38.2,16.7
		s28.5-6.2,38.2-16.7c9.4,3.8,18.3,8.9,26.3,15.2c-4.3,13.6-2.8,28.6,4.6,41.4c5.6,9.7,14,17.1,23.8,21.5c3.1,1.4,6.4,2.5,9.7,3.2
		c0.7,5,1.1,10.1,1.1,15.2S458.5,365.2,457.7,370.2z M355,303c-28.6,0-52,23.3-52,52s23.3,52,52,52s52-23.3,52-52S383.6,303,355,303
		z M355,375c-11,0-20-9-20-20s9-20,20-20s20,9,20,20S366,375,355,375z M355,303c-28.6,0-52,23.3-52,52s23.3,52,52,52s52-23.3,52-52
		S383.6,303,355,303z M355,375c-11,0-20-9-20-20s9-20,20-20s20,9,20,20S366,375,355,375z M355,303c-28.6,0-52,23.3-52,52
		s23.3,52,52,52s52-23.3,52-52S383.6,303,355,303z M355,375c-11,0-20-9-20-20s9-20,20-20s20,9,20,20S366,375,355,375z M355,303
		c-28.6,0-52,23.3-52,52s23.3,52,52,52s52-23.3,52-52S383.6,303,355,303z M355,375c-11,0-20-9-20-20s9-20,20-20s20,9,20,20
		S366,375,355,375z M355,303c-28.6,0-52,23.3-52,52s23.3,52,52,52s52-23.3,52-52S383.6,303,355,303z M355,375c-11,0-20-9-20-20
		s9-20,20-20s20,9,20,20S366,375,355,375z M355,303c-28.6,0-52,23.3-52,52s23.3,52,52,52s52-23.3,52-52S383.6,303,355,303z M355,375
		c-11,0-20-9-20-20s9-20,20-20s20,9,20,20S366,375,355,375z M355,303c-28.6,0-52,23.3-52,52s23.3,52,52,52s52-23.3,52-52
		S383.6,303,355,303z M355,375c-11,0-20-9-20-20s9-20,20-20s20,9,20,20S366,375,355,375z M355,303c-28.6,0-52,23.3-52,52
		s23.3,52,52,52s52-23.3,52-52S383.6,303,355,303z M355,375c-11,0-20-9-20-20s9-20,20-20s20,9,20,20S366,375,355,375z M355,303
		c-28.6,0-52,23.3-52,52s23.3,52,52,52s52-23.3,52-52S383.6,303,355,303z M355,375c-11,0-20-9-20-20s9-20,20-20s20,9,20,20
		S366,375,355,375z M355,303c-28.6,0-52,23.3-52,52s23.3,52,52,52s52-23.3,52-52S383.6,303,355,303z M355,375c-11,0-20-9-20-20
		s9-20,20-20s20,9,20,20S366,375,355,375z M355,303c-28.6,0-52,23.3-52,52s23.3,52,52,52s52-23.3,52-52S383.6,303,355,303z M355,375
		c-11,0-20-9-20-20s9-20,20-20s20,9,20,20S366,375,355,375z M355,303c-28.6,0-52,23.3-52,52s23.3,52,52,52s52-23.3,52-52
		S383.6,303,355,303z M355,375c-11,0-20-9-20-20s9-20,20-20s20,9,20,20S366,375,355,375z M355,303c-28.6,0-52,23.3-52,52
		s23.3,52,52,52s52-23.3,52-52S383.6,303,355,303z M355,375c-11,0-20-9-20-20s9-20,20-20s20,9,20,20S366,375,355,375z M355,303
		c-28.6,0-52,23.3-52,52s23.3,52,52,52s52-23.3,52-52S383.6,303,355,303z M355,375c-11,0-20-9-20-20s9-20,20-20s20,9,20,20
		S366,375,355,375z M355,303c-28.6,0-52,23.3-52,52s23.3,52,52,52s52-23.3,52-52S383.6,303,355,303z M355,375c-11,0-20-9-20-20
		s9-20,20-20s20,9,20,20S366,375,355,375z M355,303c-28.6,0-52,23.3-52,52s23.3,52,52,52s52-23.3,52-52S383.6,303,355,303z M355,375
		c-11,0-20-9-20-20s9-20,20-20s20,9,20,20S366,375,355,375z M355,303c-28.6,0-52,23.3-52,52s23.3,52,52,52s52-23.3,52-52
		S383.6,303,355,303z M355,375c-11,0-20-9-20-20s9-20,20-20s20,9,20,20S366,375,355,375z"/>
</g>
</svg>
